<svg width="448" height="407" viewBox="0 0 448 407" fill="none" xmlns="http://www.w3.org/2000/svg">
<path d="M14.0056 0.64157C7.85025 2.51493 2.4086 8.31341 0.89207 14.6471C0.446033 16.5205 0.0892029 68.0824 0.0892029 129.279V240.61H224H447.911V129.279C447.911 7.42134 448.089 12.2385 442.737 6.35085C441.309 4.74512 438.812 2.78255 437.117 1.89048C434.173 0.28474 426.769 0.195533 225.338 0.017118C110.528 -0.0720895 15.4329 0.195533 14.0056 0.64157ZM141.929 21.6053V25.6197H224H306.071V21.6053V17.591H318.56H331.049V30.5261V43.4612H327.035H323.02V125.086V206.711H327.035H331.049V219.646V232.581H318.56H306.071V228.567V224.552H224H141.929V228.567V232.581H129.44H116.951V219.646V206.711H120.965H124.98V125.086V43.4612H120.965H116.951V30.5261V17.591H129.44H141.929V21.6053ZM93.8463 68.3501C95.452 70.3126 95.5412 72.186 95.5412 99.1266C95.5412 126.781 95.452 127.941 93.7571 129.814C92.7758 130.885 90.9916 131.955 89.9211 132.223C88.8507 132.49 75.8264 132.669 61.0179 132.49L34.1665 132.223L31.8471 130.082L29.5277 127.941V99.3051C29.6169 78.1629 29.8845 70.3126 30.6874 69.2421C33.2744 65.9415 34.7017 65.763 63.6941 66.0307L92.1513 66.2091L93.8463 68.3501ZM412.228 73.7917C414.369 75.9327 414.458 77.1816 412.585 79.8578C411.247 81.8204 411.157 81.8204 384.127 81.8204H356.919L355.581 79.6794C354.065 77.36 354.867 73.5241 357.098 72.632C357.722 72.3644 370.033 72.0968 384.395 72.0968C409.284 72.0076 410.533 72.0968 412.228 73.7917ZM412.228 91.6332C414.369 93.7742 414.458 95.0231 412.585 97.6993C411.247 99.6619 411.157 99.6619 384.127 99.6619H356.919L355.581 97.5209C354.065 95.2015 354.867 91.3656 357.098 90.4735C357.722 90.2059 370.033 89.9383 384.395 89.9383C409.284 89.8491 410.533 89.9383 412.228 91.6332ZM412.228 109.475C414.369 111.616 414.458 112.865 412.585 115.541C411.247 117.503 411.157 117.503 384.127 117.503H356.919L355.581 115.362C354.065 113.043 354.867 109.207 357.098 108.315C357.722 108.047 370.033 107.78 384.395 107.78C409.284 107.691 410.533 107.78 412.228 109.475ZM412.228 127.316C414.369 129.457 414.458 130.706 412.585 133.382C411.247 135.345 411.157 135.345 384.127 135.345H356.919L355.581 133.204C354.065 130.885 354.867 127.049 357.098 126.157C357.722 125.889 370.033 125.621 384.395 125.621C409.284 125.532 410.533 125.621 412.228 127.316ZM412.228 145.158C414.369 147.299 414.458 148.548 412.585 151.224C411.247 153.186 411.157 153.186 384.127 153.186H356.919L355.581 151.045C354.065 148.726 354.867 144.89 357.098 143.998C357.722 143.73 370.033 143.463 384.395 143.463C409.284 143.374 410.533 143.463 412.228 145.158ZM91.3485 154.257C95.0952 156.219 95.452 157.647 95.5412 168.887C95.5412 179.324 95.452 179.681 93.2218 181.822L90.9024 183.963H62.356H33.8096L31.6687 181.465C29.7061 179.146 29.5277 178.254 29.5277 168.976C29.5277 158.271 30.3305 155.684 34.3449 154.078C37.3779 152.83 89.0291 153.008 91.3485 154.257ZM387.25 162.999C389.391 165.14 389.48 167.192 387.517 169.422C386.268 170.849 384.484 171.028 371.549 171.028C357.187 171.028 356.919 171.028 355.581 168.887C354.065 166.568 354.867 162.732 357.098 161.84C357.722 161.572 364.413 161.304 371.906 161.304C384.306 161.215 385.644 161.393 387.25 162.999Z" fill="black"/>
<path d="M141.929 39.4469V43.4612H137.915H133.9V125.086V206.711H137.915H141.929V210.725V214.74H224H306.071V210.725V206.711H310.085H314.1V125.086V43.4612H310.085H306.071V39.4469V35.4325H224H141.929V39.4469ZM260.575 65.5846L294.92 80.6607V125.443V170.225L260.218 184.855C241.128 192.973 224.892 199.574 224.089 199.574C223.286 199.574 211.154 194.757 197.238 188.78C183.232 182.892 167.532 176.202 162.179 173.972L152.634 169.957L152.812 125.264L153.08 80.5715L188.317 65.2278C207.675 56.8423 224.178 50.0625 224.892 50.241C225.606 50.4194 241.663 57.3776 260.575 65.5846Z" fill="black"/>
<path d="M193.045 73.6133C176.274 80.8391 162.536 86.9052 162.536 87.1729C162.536 87.6189 220.164 111.973 223.197 112.775C224.803 113.221 285.553 88.2434 285.553 87.1729C285.553 86.7268 227.122 61.2135 224.892 60.6782C224.178 60.589 209.816 66.2983 193.045 73.6133Z" fill="black"/>
<path d="M161.555 130.617V163.445L186.354 173.882C199.914 179.592 211.779 184.587 212.671 184.944C214.098 185.479 214.187 183.517 214.187 152.562V119.555L188.406 108.672C174.222 102.784 162.358 97.8777 162.09 97.8777C161.822 97.8777 161.555 112.597 161.555 130.617Z" fill="black"/>
<path d="M254.598 110.991L224 124.016V156.933C224 175.042 224.357 189.761 224.714 189.583C225.16 189.405 239.254 183.517 255.936 176.38L286.445 163.534V130.706C286.445 112.686 286.178 97.8777 285.821 97.8777C285.375 97.967 271.369 103.855 254.598 110.991Z" fill="black"/>
<path d="M45.585 80.4823C44.1577 82.1772 44.1577 86.1024 45.4958 87.4405C47.1016 89.0462 75.6479 89.4031 78.5918 87.7973C81.268 86.4592 81.9817 82.6233 79.9299 80.5715C77.8781 78.5197 47.28 78.4305 45.585 80.4823Z" fill="black"/>
<path d="M46.1203 95.4692C45.139 96.1828 44.5145 97.7886 44.5145 99.2159C44.5145 103.676 46.2095 104.122 62.5344 104.122C78.5918 104.122 81.268 103.409 81.268 99.3051C81.268 94.8447 79.3054 94.3095 62.8913 94.3095C51.6511 94.3095 47.28 94.5771 46.1203 95.4692Z" fill="black"/>
<path d="M46.1203 110.634C45.139 111.348 44.5145 112.954 44.5145 114.381C44.5145 118.841 46.2095 119.288 62.9805 119.288C76.7184 119.288 78.5026 119.109 79.7515 117.682C81.8033 115.362 81.6248 112.508 79.3054 110.902C76.6292 109.029 48.6181 108.85 46.1203 110.634Z" fill="black"/>
<path d="M0.267622 272.011C0.535245 292.35 0.624452 293.956 2.49781 297.346C4.90641 301.895 8.92075 305.374 13.2919 306.623C15.6113 307.337 79.2162 307.515 225.963 307.337L435.243 307.069L439.168 304.393C441.22 302.877 443.986 299.843 445.235 297.702C447.376 293.777 447.465 293.242 447.732 272.011L448 250.423H224H0L0.267622 272.011Z" fill="black"/>
<path d="M139.253 340.522V363.716H224H308.747V340.522V317.328H224H139.253V340.522Z" fill="black"/>
<path d="M78.5918 390.032V406.536H224H369.408V390.032V373.529H224H78.5918V390.032Z" fill="black"/>
</svg>
