<svg width="448" height="448" viewBox="0 0 448 448" fill="none" xmlns="http://www.w3.org/2000/svg">
<path d="M0 26.6875V53.375H224H448V26.6875V9.08971e-07H224H0V26.6875Z" fill="black"/>
<path d="M0 105.875V132.125H52.9375H105.875V105.875V79.625H52.9375H0V105.875Z" fill="black"/>
<path d="M132.125 184.625V289.625H158.375H184.625L184.712 246.05L184.8 202.563L224.087 183.138L263.375 163.625V147.875V132.125H250.25H237.125V105.875V79.625H184.625H132.125V184.625Z" fill="black"/>
<path d="M263.375 92.75V105.875H276.5H289.625V92.75V79.625H276.5H263.375V92.75Z" fill="black"/>
<path d="M315.875 105.875V132.125H302.75H289.625V147.7V163.188L329 182.875L368.375 202.563V246.05V289.625H408.187H448V184.625V79.625H381.937H315.875V105.875Z" fill="black"/>
<path d="M0 289.625V420.875H26.6875H53.375V434.438V448H66.5H79.625V434.438V420.875H92.75H105.875V289.625V158.375H52.9375H0V289.625ZM66.5 224V237.125H53.375H40.25V224V210.875H53.375H66.5V224ZM66.5 276.5V289.625H53.375H40.25V276.5V263.375H53.375H66.5V276.5ZM66.5 329V342.125H53.375H40.25V329V315.875H53.375H66.5V329Z" fill="black"/>
<path d="M252.262 198.45C239.137 205.013 228.375 210.613 228.375 210.875C228.375 211.138 239.312 216.825 252.612 223.475L276.937 235.55L301.175 223.475C314.562 216.825 325.5 211.138 325.5 210.875C325.5 210.35 277.637 186.375 276.675 186.462C276.325 186.462 265.3 191.888 252.262 198.45Z" fill="black"/>
<path d="M210.875 270.2V307.563L236.687 320.513C250.862 327.6 262.675 333.375 262.937 333.375C263.2 333.375 263.375 316.488 263.375 295.75V258.125L238 245.438C224.087 238.438 212.275 232.75 211.75 232.75C211.137 232.75 210.875 245.613 210.875 270.2Z" fill="black"/>
<path d="M315.262 245.7L289.625 258.563V295.925C289.625 320.513 289.887 333.375 290.5 333.375C291.025 333.375 302.837 327.688 316.75 320.688L342.125 308V270.375C342.125 249.638 341.862 232.75 341.512 232.838C341.075 232.838 329.262 238.613 315.262 245.7Z" fill="black"/>
<path d="M132.125 368.375V420.875H250.25H368.375V434.438V448H381.5H394.625V434.438V420.875H421.312H448V368.375V315.875H408.187H368.375V320.075V324.188L322.612 347.025L276.937 369.95L230.825 347.025L184.8 324.188L184.712 319.988L184.625 315.875H158.375H132.125V368.375Z" fill="black"/>
</svg>
