<svg width="448" height="449" viewBox="0 0 448 449" fill="none" xmlns="http://www.w3.org/2000/svg">
<path d="M0 69.9667V139.354L32.8125 106.542L65.625 73.7292L78.75 86.8542L91.875 99.9792L118.125 73.7292L144.375 47.4792L190.312 93.4167L236.25 139.354V69.9667V0.66675H118.125H0V69.9667Z" fill="black"/>
<path d="M264.25 66.2917V131.917H356.125H448V66.2917V0.666689H356.125H264.25V66.2917Z" fill="black"/>
<path d="M117.95 111.529L91.875 137.604L78.75 124.479L65.625 111.354L58.0125 118.792C53.725 122.904 39.025 137.429 25.2 151.167L0 176.104V180.217V184.417H118.125H236.25V180.654V176.979L190.487 131.217C165.375 106.104 144.637 85.5417 144.375 85.5417C144.112 85.5417 132.212 97.2667 117.95 111.529Z" fill="black"/>
<path d="M264.25 304.292V448.667H356.125H448V304.292V159.917H356.125H264.25V304.292ZM395.5 225.542V238.667H356.125H316.75V225.542V212.417H356.125H395.5V225.542ZM395.5 278.042V291.167H356.125H316.75V278.042V264.917H356.125H395.5V278.042ZM395.5 330.542V343.667H356.125H316.75V330.542V317.417H356.125H395.5V330.542ZM395.5 383.042V396.167H356.125H316.75V383.042V369.917H356.125H395.5V383.042Z" fill="black"/>
<path d="M0 330.542V448.667H118.125H236.25V330.542V212.417H118.125H0V330.542ZM193.375 330.542C193.375 330.892 167.562 348.304 136.062 369.304L78.75 407.542V330.542V253.542L136.062 291.779C167.562 312.779 193.375 330.192 193.375 330.542Z" fill="black"/>
<path d="M105 330.542V358.542L125.562 344.804C136.85 337.279 146.125 330.892 146.125 330.542C146.125 330.192 136.85 323.804 125.562 316.279L105 302.542V330.542Z" fill="black"/>
</svg>
