<svg width="333" height="448" viewBox="0 0 333 448" fill="none" xmlns="http://www.w3.org/2000/svg">
<path d="M163.908 83.0087C143.208 97.5679 119.746 114.071 107.175 141.372C85.3408 189.001 151.855 240.958 154.697 243.146C155.358 243.656 156.148 243.909 156.937 243.909C157.774 243.909 158.613 243.622 159.295 243.052C160.615 241.948 160.99 240.072 160.197 238.544C159.956 238.08 136.081 191.705 136.968 158.434C137.282 146.848 153.499 133.703 170.667 119.786C186.391 107.039 204.214 92.5915 214.643 75.6908C237.536 38.4891 212.091 1.90876 211.831 1.54449C210.821 0.125574 208.955 -0.389994 207.36 0.31065C205.766 1.01276 204.884 2.7372 205.248 4.4396C205.299 4.68049 210.248 28.8711 196.479 53.7931C190.805 64.0913 178.341 72.8589 163.908 83.0087Z" fill="black"/>
<path d="M251.122 99.4143C252.582 98.3141 253.011 96.3077 252.126 94.7066C251.242 93.1056 249.316 92.399 247.607 93.0483C244.09 94.3849 161.492 126.222 161.492 164.693C161.492 191.21 172.82 205.22 181.091 215.451C184.336 219.462 187.137 222.927 188.059 225.886C190.658 234.411 184.502 249.819 181.914 255.037C181.167 256.538 181.533 258.355 182.802 259.45C183.488 260.042 184.345 260.342 185.202 260.342C185.932 260.342 186.665 260.125 187.298 259.684C188.719 258.695 222.007 235.16 216.037 206.804C213.813 196.027 208.516 188.151 203.842 181.202C196.602 170.436 191.373 162.659 199.306 148.295C208.604 131.544 250.697 99.733 251.122 99.4143Z" fill="black"/>
<path d="M36.118 260.955C34.7021 265.192 35.3704 269.4 38.0496 273.121C47.0037 285.551 78.7192 292.397 127.359 292.397C127.362 292.397 127.363 292.397 127.365 292.397C133.956 292.397 140.913 292.268 148.04 292.012C225.806 289.227 254.65 265.001 255.84 263.972C257.137 262.849 257.483 260.98 256.677 259.467C255.87 257.955 254.131 257.196 252.47 257.653C225.083 265.131 173.941 267.785 138.468 267.785C98.775 267.785 78.5606 264.926 73.612 262.816C76.1517 259.329 91.8141 253.102 111.222 249.285C113.077 248.92 114.352 247.208 114.169 245.326C113.985 243.444 112.404 242.009 110.514 242.009C99.1363 242.011 42.0816 242.924 36.118 260.955Z" fill="black"/>
<path d="M296.337 236.005C280.297 236.005 265.087 244.042 264.447 244.384C262.963 245.179 262.211 246.88 262.618 248.513C263.027 250.145 264.494 251.292 266.177 251.294C266.518 251.295 300.391 251.572 303.46 270.925C306.177 287.622 271.409 314.675 257.783 323.691C256.311 324.665 255.74 326.548 256.423 328.174C257.003 329.559 258.353 330.426 259.807 330.426C260.061 330.426 260.318 330.399 260.574 330.343C263.808 329.653 339.679 312.934 331.657 268.759C326.763 241.686 309.748 236.005 296.337 236.005Z" fill="black"/>
<path d="M244.306 318.285C244.57 316.869 243.981 315.43 242.803 314.604L224.612 301.862C223.724 301.241 222.604 301.045 221.562 301.322C221.373 301.372 202.348 306.372 174.728 309.439C163.766 310.668 151.488 311.317 139.218 311.317C111.605 311.317 93.5501 308.072 90.9209 305.693C90.5728 305.025 90.6829 304.721 90.7446 304.552C91.222 303.222 93.7822 301.643 95.4332 301.019C97.256 300.345 98.2387 298.365 97.6717 296.505C97.1062 294.646 95.1894 293.55 93.2975 294.005C75.0484 298.409 66.1251 304.568 66.7744 312.309C67.9274 326.032 99.7178 333.077 126.593 334.941C130.458 335.205 134.638 335.34 139.014 335.34C139.017 335.34 139.019 335.34 139.021 335.34C183.711 335.34 241.003 321.319 241.575 321.176C242.974 320.831 244.04 319.701 244.306 318.285Z" fill="black"/>
<path d="M107.153 347.743C108.531 346.846 109.142 345.143 108.653 343.575C108.165 342.006 106.698 340.976 105.05 340.997C102.604 341.062 81.1194 342.031 79.6153 355.71C79.1599 359.798 80.3306 363.532 83.0964 366.809C90.8109 375.951 111.633 381.385 146.745 383.422C150.899 383.67 155.117 383.795 159.287 383.795C203.926 383.795 233.989 369.819 235.248 369.224C236.468 368.647 237.273 367.448 237.345 366.1C237.417 364.753 236.745 363.473 235.593 362.77L212.602 348.735C211.805 348.249 210.85 348.087 209.939 348.274C209.794 348.304 195.197 351.332 173.167 354.324C168.998 354.889 163.778 355.177 157.653 355.177C135.646 355.177 111.169 351.581 106.475 349.228C106.407 348.786 106.494 348.228 107.153 347.743Z" fill="black"/>
<path d="M138.484 425.994C240.731 425.907 295.609 407.724 306.18 396.282C309.923 392.232 310.327 388.4 310.008 385.897C309.222 379.736 303.613 375.966 302.975 375.556C301.44 374.569 299.381 374.828 298.184 376.208C296.99 377.59 296.962 379.607 298.16 380.986C298.805 381.816 299.178 383.204 297.292 385.092C293.066 389.039 250.44 401.02 179.468 404.619C169.746 405.126 159.549 405.381 149.161 405.383C85.6154 405.383 39.11 396.68 33.0054 391.606C35.36 388.226 51.8083 382.824 69.3023 379.77C71.2735 379.427 72.6058 377.568 72.3003 375.591C71.9947 373.614 70.1719 372.253 68.1801 372.513C67.6866 372.579 66.0136 372.682 64.0732 372.799C35.2087 374.562 1.8525 378.491 0.111906 393.362C-0.416881 397.894 0.930056 402.007 4.116 405.588C11.9112 414.347 34.3186 425.992 138.479 425.992C138.482 425.994 138.482 425.994 138.484 425.994Z" fill="black"/>
<path d="M326.264 399.506C324.819 398.837 323.112 399.175 322.032 400.339C321.881 400.5 306.509 416.575 260.289 426.014C242.594 429.56 209.378 431.358 161.566 431.358C113.663 431.358 68.0832 429.473 67.6279 429.454C65.7243 429.362 64.0953 430.745 63.8368 432.62C63.5768 434.494 64.7842 436.258 66.6232 436.696C67.0977 436.809 114.866 448 180.18 448C211.507 448 241.99 445.455 270.785 440.434C324.476 431.022 328.235 404.399 328.369 403.27C328.555 401.693 327.706 400.174 326.264 399.506Z" fill="black"/>
</svg>
