<svg width="448" height="448" viewBox="0 0 448 448" fill="none" xmlns="http://www.w3.org/2000/svg">
<path d="M439.787 168.496C432.087 137.597 417.487 114.297 386.388 114.297H346.29V161.696C346.29 198.495 315.091 229.493 279.492 229.493H172.695C143.496 229.493 119.297 254.493 119.297 283.792V385.588C119.297 414.587 144.496 431.587 172.695 439.886C206.494 449.786 238.993 451.586 279.492 439.886C306.391 432.087 332.89 416.387 332.89 385.588V344.889H226.194V331.29H386.388C417.487 331.29 428.987 309.591 439.787 277.092C450.986 243.593 450.486 211.394 439.787 168.496V168.496ZM286.192 371.989C297.291 371.989 306.291 381.088 306.291 392.288C306.291 403.587 297.291 412.687 286.192 412.687C275.192 412.687 266.092 403.487 266.092 392.288C266.192 380.988 275.192 371.989 286.192 371.989ZM167.795 216.094H274.592C304.291 216.094 327.99 191.595 327.99 161.796V59.8992C327.99 30.9002 303.591 9.20098 274.592 4.30114C238.793 -1.59865 199.894 -1.29866 167.795 4.40114C122.597 12.4009 114.397 29.1003 114.397 59.9992V100.698H221.294V114.297H74.2984C43.1994 114.297 16.0002 132.997 7.50051 168.496C-2.29918 209.194 -2.69916 234.593 7.50051 277.092C15.1003 308.691 33.1997 331.29 64.2987 331.29H100.998V282.492C100.998 247.193 131.497 216.094 167.795 216.094ZM161.096 73.4988C149.996 73.4988 140.996 64.3991 140.996 53.1995C141.096 41.8999 149.996 32.8002 161.096 32.8002C172.095 32.8002 181.195 41.9999 181.195 53.1995C181.195 64.3991 172.195 73.4988 161.096 73.4988V73.4988Z" fill="black"/>
</svg>
