<svg width="448" height="449" viewBox="0 0 448 449" fill="none" xmlns="http://www.w3.org/2000/svg">
<path d="M32.7251 2.0019C29.7501 2.61439 25.2877 4.18936 22.6628 5.50183C16.6254 8.56427 7.87557 17.3141 4.90063 23.3515C-0.174268 33.3263 0.000728393 23.5265 0.000728393 224.685C0.000728393 425.843 -0.174268 416.044 4.90063 426.018C7.87557 432.056 16.6254 440.806 22.6628 443.781C31.7626 448.418 34.5625 448.68 89.5114 448.68H139.998V434.681V420.681L88.4614 420.506C37.8875 420.243 36.8375 420.243 34.475 418.406C33.1626 417.444 31.2376 415.519 30.2751 414.206L28.4377 411.844V224.685V37.5262L30.2751 35.1637C31.2376 33.8513 33.1626 31.9263 34.475 30.9638C36.8375 29.1264 37.3625 29.1264 144.373 28.8639L251.908 28.6889L252.171 59.9257L252.433 91.2501L254.708 96.15C257.596 102.362 262.32 107.087 268.533 109.975L273.433 112.25L304.757 112.512L335.994 112.775V133.687V154.686H349.994H363.993V125.374C363.993 102.1 363.731 95.45 362.768 93.1751C361.193 89.5876 274.22 2.78939 270.983 1.56441C266.958 0.164441 39.6374 0.514434 32.7251 2.0019Z" fill="black"/>
<path d="M116.723 225.997C108.936 227.66 102.724 231.16 96.5113 237.46C83.9116 250.059 80.7616 268.434 88.374 284.884C92.9239 294.596 103.511 303.608 114.186 306.933C116.286 307.633 125.998 308.246 138.423 308.596C161.085 309.208 161.348 309.208 165.722 315.158C168.26 318.571 168.26 326.795 165.722 330.208C161.435 336.07 160.735 336.245 141.923 336.508C131.248 336.683 123.461 336.42 121.448 335.895C117.511 334.67 113.136 329.858 112.349 325.745L111.824 322.683H97.9113C81.9866 322.683 83.2116 321.895 85.2241 331.52C86.974 339.745 90.3865 345.87 96.5988 352.082C107.011 362.495 114.536 364.682 139.998 364.682C165.547 364.682 172.985 362.495 183.485 351.907C196.084 339.308 199.234 320.933 191.622 304.483C187.072 294.771 176.485 285.759 165.81 282.434C163.71 281.734 153.998 281.121 141.573 280.771C118.911 280.159 118.648 280.159 114.273 274.209C111.736 270.797 111.736 262.572 114.273 259.159C118.561 253.297 119.261 253.122 138.073 252.859C148.748 252.684 156.535 252.947 158.548 253.472C162.485 254.697 166.86 259.509 167.647 263.622L168.172 266.684H182.085C198.009 266.684 196.784 267.472 194.772 257.847C193.022 249.622 189.609 243.497 183.397 237.285C177.185 231.072 171.06 227.66 162.835 225.91C155.223 224.335 124.248 224.335 116.723 225.997Z" fill="black"/>
<path d="M253.833 225.997C238.258 229.41 223.384 241.047 216.296 255.397C210.871 266.334 209.996 271.584 209.996 294.684C209.996 317.783 210.871 323.033 216.296 333.97C221.459 344.383 230.296 353.22 240.708 358.382C252.871 364.42 255.146 364.682 298.195 364.682H335.994V350.682V336.683H325.144H314.207L316.744 331.17C321.032 322.07 321.994 315.158 321.994 293.984C321.994 271.671 321.119 266.247 315.694 255.397C304.67 232.997 278.683 220.66 253.833 225.997ZM277.545 255.484C283.67 258.284 288.395 263.009 291.282 269.222C293.557 274.034 293.557 274.296 293.557 294.684C293.557 315.071 293.557 315.333 291.282 320.146C286.47 330.383 277.283 336.245 265.995 336.245C254.708 336.245 245.521 330.383 240.708 320.146C238.521 315.421 238.433 314.633 238.171 296.696C237.908 281.909 238.171 277.096 239.221 273.421C244.121 256.622 261.883 248.309 277.545 255.484Z" fill="black"/>
<path d="M350.169 290.221C350.431 354.882 350.431 355.845 352.269 358.207C353.231 359.52 355.156 361.445 356.469 362.407C358.831 364.157 359.968 364.245 403.455 364.507L447.992 364.77V350.682V336.683H412.992H377.993V280.684V224.685H363.993H349.994L350.169 290.221Z" fill="black"/>
</svg>
